<?xml version="1.0" encoding="utf-8"?>
<!-- Generator: Adobe Illustrator 19.0.0, SVG Export Plug-In . SVG Version: 6.00 Build 0)  -->
<svg version="1.1" id="layer" xmlns="http://www.w3.org/2000/svg" xmlns:xlink="http://www.w3.org/1999/xlink" x="0px" y="0px"
	 viewBox="-153 -46 652 652" style="enable-background:new -153 -46 652 652;" xml:space="preserve">
<style type="text/css">
	.st0{fill:#223B46;}
	.st1{fill:#687A80;}
</style>
<path id="Fill-1" class="st0" d="M-44.2,144.1L-126,308.2h38.3l12.1-25.8h67l12.2,25.8h37.6l-82.8-164.1H-44.2z M-22.4,253.4h-39.7
	l11.9-25.5c3.3-7,5.8-13.7,7.8-20.9c2,7.2,4.5,13.9,7.9,20.9L-22.4,253.4z"/>
<path id="Fill-2" class="st0" d="M141.6,245.3c-6.8-13.1-13.4-20.9-23.5-25.8l55.8-74.4h-43.3l-52.3,74.3v-74.3h-37v163.2h37v-66.6
	c15,0,24.9,2.3,31.7,16.6l23.9,49.9h40.2L141.6,245.3"/>
<path id="Fill-3" class="st1" d="M306.8,145.1h-37v74.3l-52.7-74.3h-43.3l56,74.3c-10.3,5-17,12.7-23.8,25.9l-32.1,63h40.2
	l23.9-49.9c6.9-14.4,16.7-16.6,31.7-16.6v66.6h37V145.1"/>
<path id="Fill-4" class="st1" d="M392.1,144.1h-2.6l-82.8,164.1h37.6l12.2-25.8h67l12.1,25.8h38.3L392.1,144.1 M370.3,253.4l12-25.5
	c3.3-7,5.9-13.7,7.9-20.9c2,7.2,4.6,13.9,7.8,20.9l11.9,25.5H370.3"/>
<path class="st0" d="M-69,355c3.2,0,5.2-1.8,5.2-4.5c0-2.7-1.9-4.5-5.2-4.5h-3.5v9H-69z M-76.9,341.9h8.1c5.6,0,9.5,3.5,9.5,8.6
	c0,5-3.9,8.6-9.5,8.6h-3.7v9.8h-4.4V341.9z M-50.8,358.9h7.5l-3.7-8L-50.8,358.9z M-47,341.6l13.3,27.4h-4.8l-2.8-6h-11.4l-2.8,6
	h-4.7L-47,341.6z M-30.8,364.7l3.4-2.8c1.3,1.7,3.4,3.2,5.7,3.2c2.6,0,4.2-1.2,4.2-3.1c0-2-1.3-3.2-3.9-4.4l-2.1-0.9
	c-4.1-1.8-6.1-4.4-6.1-7.9c0-4.4,3.9-7.2,8.1-7.2c3.1,0,5.6,1.1,7.6,3.4l-3.1,3.2c-1.4-1.7-2.6-2.4-4.6-2.4c-1.8,0-3.6,1.1-3.6,2.9
	c0,1.7,1.2,3,3.9,4.2l2.1,1c3.7,1.6,6.2,4,6.2,7.8c0,4.6-3.4,7.7-8.6,7.7C-25.8,369.3-29.1,367.5-30.8,364.7 M-9.3,364.7l3.4-2.8
	c1.3,1.7,3.4,3.2,5.7,3.2c2.6,0,4.2-1.2,4.2-3.1c0-2-1.3-3.2-3.9-4.4l-2.1-0.9c-4.1-1.8-6.1-4.4-6.1-7.9c0-4.4,3.9-7.2,8.1-7.2
	c3.1,0,5.6,1.1,7.6,3.4l-3.1,3.2c-1.4-1.7-2.6-2.4-4.6-2.4c-1.8,0-3.6,1.1-3.6,2.9c0,1.7,1.2,3,3.9,4.2l2.1,1c3.7,1.6,6.2,4,6.2,7.8
	c0,4.6-3.4,7.7-8.6,7.7C-4.2,369.3-7.6,367.5-9.3,364.7 M14.5,369h4.4v-27.1h-4.4V369z M48.4,355.5c0-5.4-4-9.7-9.4-9.7
	c-5.4,0-9.4,4.2-9.4,9.7s4,9.7,9.4,9.7C44.4,365.1,48.4,360.9,48.4,355.5z M25.1,355.5c0-7.8,6.2-13.9,13.9-13.9
	c7.7,0,13.9,6,13.9,13.9c0,7.8-6.2,13.9-13.9,13.9C31.3,369.3,25.1,363.3,25.1,355.5z M63.5,351.7V369h-4.4v-27.4l18.6,17.6v-17.3
	h4.4v27.4L63.5,351.7 M100.4,341.9h15.8v4.4h-11.3v6.9h8.8v4.3h-8.8V369h-4.4V341.9 M143.2,355.5c0-5.4-4-9.7-9.4-9.7
	c-5.4,0-9.4,4.2-9.4,9.7s4,9.7,9.4,9.7C139.2,365.1,143.2,360.9,143.2,355.5z M119.9,355.5c0-7.8,6.2-13.9,13.9-13.9
	c7.7,0,13.9,6,13.9,13.9c0,7.8-6.2,13.9-13.9,13.9C126.1,369.3,119.9,363.3,119.9,355.5z M162.3,353.6c3.1,0,4.6-1.5,4.6-3.8
	c0-2.3-1.5-3.9-4.6-3.9h-3.9v7.6H162.3z M160.9,357.5h-2.6V369h-4.4v-27.1h8.8c5,0,8.6,3.2,8.6,7.8c0,3.5-2.1,6.3-5.6,7.4l8.7,11.9
	h-5.3L160.9,357.5z M-119.1,392.1h-7v-4.4h18.5v4.4h-7v22.7h-4.4V392.1 M-102.1,387.7H-86v4.4h-11.7v6.9h9.4v4.3h-9.4v7.2H-86v4.4
	h-16.1V387.7 M-81.2,401.3c0-7.8,6.2-13.9,13.9-13.9c3.8,0,7.1,1.3,9.6,3.9l-2.9,3.1c-1.7-1.8-4.1-2.9-6.7-2.9
	c-5.4,0-9.4,4.2-9.4,9.7c0,5.4,4,9.7,9.4,9.7c2.6,0,5-1.1,6.7-2.9l2.9,3.1c-2.5,2.6-5.8,3.9-9.6,3.9
	C-75,415.1-81.2,409.1-81.2,401.3 M-51.8,387.7h4.4v11.2h13.5v-11.2h4.4v27.1h-4.4v-11.6h-13.5v11.6h-4.4V387.7 M-17.3,397.5v17.3
	h-4.4v-27.4L-3.2,405v-17.3h4.4v27.4L-17.3,397.5 M30.7,401.3c0-5.4-4-9.7-9.4-9.7c-5.4,0-9.4,4.2-9.4,9.7c0,5.4,4,9.7,9.4,9.7
	C26.7,410.9,30.7,406.7,30.7,401.3z M7.5,401.3c0-7.8,6.2-13.9,13.9-13.9c7.7,0,13.9,6,13.9,13.9c0,7.8-6.2,13.9-13.9,13.9
	C13.7,415.1,7.5,409.1,7.5,401.3z M41.4,387.7h4.4v22.7h11.4v4.4H41.4V387.7 M82.7,401.3c0-5.4-4-9.7-9.4-9.7
	c-5.4,0-9.4,4.2-9.4,9.7c0,5.4,4,9.7,9.4,9.7C78.7,410.9,82.7,406.7,82.7,401.3z M59.4,401.3c0-7.8,6.2-13.9,13.9-13.9
	c7.7,0,13.9,6,13.9,13.9c0,7.8-6.2,13.9-13.9,13.9C65.6,415.1,59.4,409.1,59.4,401.3z M91.8,401.3c0-7.8,6.2-13.9,13.9-13.9
	c3.9,0,7.4,1.3,9.9,3.9l-2.9,3.1c-1.7-1.8-4.4-2.9-7-2.9c-5.4,0-9.4,4.2-9.4,9.7c0,5.4,4,9.7,9.4,9.7c2,0,4-0.5,5.5-1.5v-6.3h-7.5
	l2-4.3h9.9v12.7c-2.5,2.2-6.2,3.5-10,3.5C98,415.1,91.8,409.1,91.8,401.3 M123,414.8h4.4v-27.1H123V414.8z M135.2,387.7h16.1v4.4
	h-11.7v6.9h9.4v4.3h-9.4v7.2h11.7v4.4h-16.1V387.7 M155.5,410.5l3.4-2.8c1.3,1.7,3.4,3.2,5.7,3.2c2.6,0,4.2-1.2,4.2-3.1
	c0-2-1.3-3.2-3.9-4.4l-2.1-0.9c-4.1-1.8-6.1-4.4-6.1-7.9c0-4.4,3.9-7.2,8.1-7.2c3.1,0,5.6,1.1,7.6,3.4l-3.1,3.2
	c-1.4-1.7-2.6-2.4-4.6-2.4c-1.8,0-3.6,1.1-3.6,2.9c0,1.8,1.2,3,3.9,4.2l2.1,1c3.7,1.6,6.2,4,6.2,7.7c0,4.6-3.4,7.7-8.6,7.7
	C160.5,415.1,157.2,413.3,155.5,410.5"/>
</svg>
